<svg xmlns="http://www.w3.org/2000/svg" width="120" height="120">x
    <g class="tank" transform="rotate(0 60 70)">
        <g class="turret" transform="rotate(0 60 65)">
            <polygon stroke="#000000" stroke-width="1.0" fill="#919191" class="cockpit" points="45,60 50,50 70,50 75,60 75,70 70,88 50,88 45,70"/>
            <rect stroke="#000000" stroke-width="1.0" fill="#6A6A6A" class="plate" x="52" y="75" width="16" height="10"/>
            <polygon stroke="#000000" stroke-width="1.0" fill="#6A6A6A" class="trap" points="61.8,57 67.2,57 70.1,62 67.2,67 61.8,67 58.9,62"/>

            <g class="cannon">
                <polygon stroke="#000000" stroke-width="1.0" fill="#6A6A6A" class="hook" points="55,49 57,47 63,47 65,49 65,50 55,50"/>
                <rect stroke="#000000" stroke-width="1.0" fill="#919191" class="tube" x="58.5" y="17" width="3" height="30"/>
                <polygon stroke="#000000" stroke-width="1.0" fill="#6A6A6A" class="nose" points="57.5,10 62.5,10 62.5,16 61.5,17 58.5,17 57.5,16"/>
            </g>
        </g>
    </g>
</svg>